<?xml version="1.0" encoding="UTF-8" standalone="no"?>
<svg
   width="429.87991"
   height="210.32314"
   version="1.1"
   xml:space="preserve"
   style="clip-rule:evenodd;fill-rule:evenodd;stroke-linejoin:round;stroke-miterlimit:2"
   id="svg92"
   sodipodi:docname="flexit-dark-transparen-s.svg"
   inkscape:version="1.1.1 (3bf5ae0d25, 2021-09-20)"
   xmlns:inkscape="http://www.inkscape.org/namespaces/inkscape"
   xmlns:sodipodi="http://sodipodi.sourceforge.net/DTD/sodipodi-0.dtd"
   xmlns="http://www.w3.org/2000/svg"
   xmlns:svg="http://www.w3.org/2000/svg"><defs
     id="defs96" /><sodipodi:namedview
     id="namedview94"
     pagecolor="#505050"
     bordercolor="#eeeeee"
     borderopacity="1"
     inkscape:pageshadow="0"
     inkscape:pageopacity="0"
     inkscape:pagecheckerboard="0"
     showgrid="false"
     inkscape:zoom="0.5562847"
     inkscape:cx="965.33303"
     inkscape:cy="284.92604"
     inkscape:window-width="1920"
     inkscape:window-height="1009"
     inkscape:window-x="1072"
     inkscape:window-y="282"
     inkscape:window-maximized="1"
     inkscape:current-layer="svg92" /><g
     transform="matrix(0.557583,0,0,-0.54494,-329.20989,490.17287)"
     id="g4"><path
       d="m 906.184,760.182 c 0,0.014 8.787,11.738 10.044,13.609 8.639,12.867 16.307,25.656 25.437,38.486 2.671,3.754 8.273,12.013 8.074,12.169 -10.661,8.364 -35.641,33.601 -72.642,51.495 -52.227,25.257 -104.403,37.018 -185.741,0 -55.869,-25.428 -81.176,-70.636 -94.528,-115.759 -4.226,-14.281 -8.061,-60.388 -5.666,-74.762 1.106,-6.637 2.842,-22.299 5.666,-31.987 8.02,-27.515 10.76,-33.046 32.597,-64.516 0.676,-0.974 2.087,-2.589 3.991,-4.615 9.229,-9.826 30.033,-29.333 34.744,-32.474 22.051,-14.701 51.191,-29.34 76.858,-34.24 21.252,-4.057 55.412,-4.766 74.49,0 65.739,16.423 90.583,37.254 130.231,86.249 8.421,10.406 22.536,28.702 30.357,39.875 23.574,33.678 40.774,63.386 65.334,96.123 13.25,17.669 19.16,28.471 35.54,43.175 2.45,2.201 15.11,14.14 31.45,24.554 5.7,3.634 16.54,8.524 22.78,10.037 43.47,10.528 78.53,-2.786 89.6,-10.037 20.2,-13.227 37.11,-30.807 44.77,-47.382 6.82,-14.787 15.18,-32.695 14.81,-49.169 -1.21,-53.473 -16.02,-80.895 -59.58,-104.909 -35.77,-19.722 -81.13,-16.744 -114.62,0 -13.19,6.596 -37.96,24.156 -49.17,33.498 -1.2,1.005 -15.13,14.462 -15.58,13.831 -5.76,-7.971 -15.13,-20.872 -21.54,-30.952 -4.56,-7.168 -15.2,-22.291 -20.03,-29.371 -1.75,-2.571 -3,-3.963 -2.76,-4.193 21.81,-21.395 78,-54.676 109.08,-65.211 35.74,-12.114 62.66,-14.917 117.65,0 29.74,8.067 35.38,13.215 61.46,32.778 15.82,11.86 31.87,26.939 42.7,43.901 6.91,10.837 10.03,16.474 16.14,29.267 6.5,13.598 10.58,34.576 12.25,49.559 1.43,12.919 1.27,25.493 0,38.241 -1.43,14.241 -3.76,28.64 -7.28,42.73 -6.89,27.535 -33.24,69.028 -54.6,87.713 -6.55,5.728 -10.59,10.147 -17.96,14.836 -21.66,13.787 -43.29,26.658 -69.45,31.885 -17.51,3.5 -30.43,5.838 -49.94,4.332 -22.85,-1.764 -42.14,-1.428 -70.51,-15.104 -23.03,-11.102 -42.76,-22.736 -65.12,-45.552 C 1010.5,822.973 991.904,800.693 980.096,783.01 963.933,758.805 949.759,736.382 932.037,711.013 912.427,682.94 872.84,617.277 829.303,600.385 788.62,584.6 744.935,587.84 711.587,616.189 c -42.712,36.309 -45.972,75.075 -43.427,108.164 1.44,18.72 15.207,50.925 29.393,62.648 23.446,19.375 31.496,27.96 67.83,33.546 48.544,7.463 72.121,-12.849 99.404,-27.977 8.755,-4.854 41.397,-32.393 41.397,-32.388 z"
       id="path2" /></g></svg>
