<?xml version="1.0" encoding="UTF-8" standalone="no"?>
<svg
   width="1455.4866"
   height="349.46161"
   version="1.1"
   xml:space="preserve"
   style="clip-rule:evenodd;fill-rule:evenodd;stroke-linejoin:round;stroke-miterlimit:2"
   id="svg92"
   sodipodi:docname="flexit-dark-transparen-upper.svg"
   inkscape:version="1.1.1 (3bf5ae0d25, 2021-09-20)"
   xmlns:inkscape="http://www.inkscape.org/namespaces/inkscape"
   xmlns:sodipodi="http://sodipodi.sourceforge.net/DTD/sodipodi-0.dtd"
   xmlns="http://www.w3.org/2000/svg"
   xmlns:svg="http://www.w3.org/2000/svg"><defs
     id="defs96" /><sodipodi:namedview
     id="namedview94"
     pagecolor="#505050"
     bordercolor="#eeeeee"
     borderopacity="1"
     inkscape:pageshadow="0"
     inkscape:pageopacity="0"
     inkscape:pagecheckerboard="0"
     showgrid="false"
     inkscape:zoom="0.5562847"
     inkscape:cx="456.60073"
     inkscape:cy="-99.769056"
     inkscape:window-width="1920"
     inkscape:window-height="1009"
     inkscape:window-x="1072"
     inkscape:window-y="282"
     inkscape:window-maximized="1"
     inkscape:current-layer="svg92" /><g
     transform="matrix(0.839596,0,0,0.732396,-732.96703,-742.32863)"
     id="g50"><g
       transform="matrix(591.262,0,0,591.262,839.889,1354.72)"
       id="g28"><path
         d="m 0.176,-0.456 v 0.282 c 0,0.03 0.007,0.052 0.022,0.068 0.015,0.015 0.034,0.023 0.059,0.023 0.02,0 0.039,-0.006 0.058,-0.019 0.018,-0.012 0.033,-0.029 0.045,-0.052 V -0.456 H 0.48 V 0 H 0.36 V -0.062 C 0.317,-0.015 0.27,0.009 0.219,0.009 0.17,0.009 0.131,-0.007 0.101,-0.039 0.071,-0.071 0.056,-0.113 0.056,-0.164 v -0.292 z"
         style="fill-rule:nonzero"
         id="path26" /></g><g
       transform="matrix(591.262,0,0,591.262,1159.19,1354.72)"
       id="g32"><path
         d="m 0.295,-0.465 c 0.065,0 0.118,0.022 0.157,0.066 0.04,0.043 0.06,0.1 0.06,0.17 0,0.046 -0.009,0.087 -0.028,0.123 C 0.465,-0.07 0.439,-0.042 0.404,-0.021 0.37,-0.001 0.331,0.009 0.287,0.009 0.252,0.009 0.216,0 0.18,-0.018 V 0.23 H 0.06 v -0.686 h 0.119 v 0.029 C 0.215,-0.452 0.254,-0.465 0.295,-0.465 Z M 0.18,-0.106 c 0.03,0.017 0.058,0.026 0.084,0.026 0.038,0 0.068,-0.014 0.091,-0.041 0.023,-0.027 0.034,-0.061 0.034,-0.104 0,-0.047 -0.01,-0.083 -0.03,-0.109 -0.021,-0.027 -0.05,-0.04 -0.087,-0.04 -0.014,0 -0.028,0.002 -0.041,0.007 -0.013,0.005 -0.03,0.015 -0.051,0.03 z"
         style="fill-rule:nonzero"
         id="path30" /></g><g
       transform="matrix(591.262,0,0,591.262,1483.12,1354.72)"
       id="g36"><path
         d="m 0.295,-0.465 c 0.065,0 0.118,0.022 0.157,0.066 0.04,0.043 0.06,0.1 0.06,0.17 0,0.046 -0.009,0.087 -0.028,0.123 C 0.465,-0.07 0.439,-0.042 0.404,-0.021 0.37,-0.001 0.331,0.009 0.287,0.009 0.252,0.009 0.216,0 0.18,-0.018 V 0.23 H 0.06 v -0.686 h 0.119 v 0.029 C 0.215,-0.452 0.254,-0.465 0.295,-0.465 Z M 0.18,-0.106 c 0.03,0.017 0.058,0.026 0.084,0.026 0.038,0 0.068,-0.014 0.091,-0.041 0.023,-0.027 0.034,-0.061 0.034,-0.104 0,-0.047 -0.01,-0.083 -0.03,-0.109 -0.021,-0.027 -0.05,-0.04 -0.087,-0.04 -0.014,0 -0.028,0.002 -0.041,0.007 -0.013,0.005 -0.03,0.015 -0.051,0.03 z"
         style="fill-rule:nonzero"
         id="path34" /></g><g
       transform="matrix(591.262,0,0,591.262,1807.04,1354.72)"
       id="g40"><path
         d="m 0.286,-0.465 c 0.048,0 0.091,0.01 0.13,0.03 0.038,0.02 0.068,0.048 0.089,0.083 0.022,0.036 0.032,0.077 0.032,0.122 0,0.047 -0.01,0.089 -0.03,0.124 -0.021,0.036 -0.051,0.064 -0.09,0.084 -0.04,0.021 -0.083,0.031 -0.131,0.031 -0.048,0 -0.091,-0.01 -0.13,-0.031 C 0.117,-0.042 0.087,-0.07 0.067,-0.106 0.046,-0.141 0.036,-0.183 0.036,-0.23 c 0,-0.046 0.011,-0.087 0.032,-0.122 0.022,-0.036 0.052,-0.064 0.09,-0.083 0.039,-0.02 0.081,-0.03 0.128,-0.03 z M 0.162,-0.23 c 0,0.046 0.011,0.082 0.034,0.109 0.022,0.027 0.052,0.041 0.089,0.041 0.039,0 0.07,-0.013 0.092,-0.039 C 0.4,-0.145 0.411,-0.182 0.411,-0.231 0.411,-0.277 0.4,-0.313 0.377,-0.338 0.355,-0.363 0.324,-0.376 0.285,-0.376 c -0.036,0 -0.066,0.013 -0.089,0.04 -0.022,0.027 -0.034,0.062 -0.034,0.106 z"
         style="fill-rule:nonzero"
         id="path38" /></g><g
       transform="matrix(591.262,0,0,591.262,2145.98,1354.72)"
       id="g44"><path
         d="m 0.321,-0.465 c 0.016,0 0.031,0.004 0.047,0.011 0.015,0.007 0.033,0.019 0.054,0.036 L 0.379,-0.313 C 0.344,-0.339 0.316,-0.352 0.295,-0.352 0.276,-0.352 0.258,-0.345 0.24,-0.331 0.222,-0.317 0.207,-0.299 0.197,-0.276 0.186,-0.254 0.18,-0.231 0.18,-0.208 V 0 H 0.06 v -0.456 h 0.12 v 0.116 h 0.002 c 0.022,-0.044 0.044,-0.076 0.066,-0.095 0.022,-0.02 0.046,-0.03 0.073,-0.03 z"
         style="fill-rule:nonzero"
         id="path42" /></g><g
       transform="matrix(591.262,0,0,591.262,2393.11,1354.72)"
       id="g48"><path
         d="m 0.185,-0.577 h 0.01 v 0.121 h 0.156 v 0.091 H 0.195 v 0.21 c 0,0.021 0.006,0.037 0.018,0.05 0.013,0.013 0.03,0.019 0.051,0.019 0.028,0 0.06,-0.01 0.097,-0.03 V -0.02 C 0.318,-0.001 0.277,0.009 0.239,0.009 0.187,0.009 0.147,-0.005 0.118,-0.033 0.09,-0.061 0.075,-0.099 0.075,-0.147 V -0.365 H 0.004 v -0.02 z"
         style="fill-rule:nonzero"
         id="path46" /></g></g></svg>
