<?xml version="1.0" encoding="UTF-8" standalone="no"?>
<svg
   width="1981px"
   height="903px"
   version="1.1"
   xml:space="preserve"
   style="fill-rule:evenodd;clip-rule:evenodd;stroke-linejoin:round;stroke-miterlimit:2;"
   id="svg94"
   sodipodi:docname="FlexIT Support logo light mode.svg"
   inkscape:version="1.1.1 (3bf5ae0d25, 2021-09-20)"
   xmlns:inkscape="http://www.inkscape.org/namespaces/inkscape"
   xmlns:sodipodi="http://sodipodi.sourceforge.net/DTD/sodipodi-0.dtd"
   xmlns="http://www.w3.org/2000/svg"
   xmlns:svg="http://www.w3.org/2000/svg"><defs
   id="defs98" /><sodipodi:namedview
   id="namedview96"
   pagecolor="#505050"
   bordercolor="#eeeeee"
   borderopacity="1"
   inkscape:pageshadow="0"
   inkscape:pageopacity="0"
   inkscape:pagecheckerboard="0"
   showgrid="false"
   inkscape:zoom="0.5562847"
   inkscape:cx="990.5"
   inkscape:cy="452.10662"
   inkscape:window-width="1920"
   inkscape:window-height="1009"
   inkscape:window-x="1072"
   inkscape:window-y="282"
   inkscape:window-maximized="1"
   inkscape:current-layer="svg94" />
    <g
   id="g92">
        <g
   transform="matrix(0.557583,0,0,-0.54494,-315.592,1077.26)"
   id="g4">
            <path
   id="path2"
   d="m 1161.7871,513.57031 c -18.0712,0.35038 -33.7374,4.07777 -51.6074,10.13477 -31.08,10.535 -87.2701,43.81789 -109.0801,65.21289 -0.24,0.23 1.0098,1.6204 2.7598,4.19141 4.83,7.07999 15.4712,22.20309 20.0312,29.37109 6.41,10.08 15.7791,22.98212 21.5391,30.95312 0.45,0.631 14.3801,-12.82703 15.5801,-13.83203 11.21,-9.342 35.9799,-26.90204 49.1699,-33.49804 33.49,-16.744 78.8511,-19.722 114.6211,0 43.56,24.014 58.3701,51.43715 59.5801,104.91015 0.37,16.474 -7.9906,34.38097 -14.8106,49.16797 -7.66,16.575 -24.5695,34.15581 -44.7695,47.38281 -11.07,7.251 -46.1316,20.56511 -89.6016,10.03711 -6.24,-1.513 -17.0793,-6.40311 -22.7793,-10.03711 -16.34,-10.414 -28.9992,-22.35368 -31.4492,-24.55468 -16.38,-14.704 -22.291,-25.50483 -35.541,-43.17383 -24.56,-32.737 -41.76,-62.44505 -65.334,-96.12305 -7.821,-11.173 -21.93642,-29.469 -30.35742,-39.875 -39.648,-48.995 -64.49147,-69.827 -130.23047,-86.25 -19.078,-4.766 -53.23823,-4.057 -74.49023,0 -25.667,4.9 -54.80642,19.53923 -76.85742,34.24023 -4.711,3.141 -25.51514,22.64861 -34.74414,32.47461 -1.904,2.026 -3.31424,3.64124 -3.99024,4.61524 -21.837,31.47 -24.57766,37.00062 -32.59766,64.51562 -2.82399,9.688 -4.56001,25.34933 -5.66601,31.98633 -2.395,14.374 1.44002,60.48072 5.66601,74.76172 13.35201,45.123 38.65835,90.33177 94.52735,115.75977 81.338,37.018 133.51519,25.257 185.74219,0 37.001,-17.894 61.97962,-43.1321 72.64062,-51.4961 0.199,-0.156 -5.40322,-8.41397 -8.07422,-12.16797 -9.13,-12.83 -16.79654,-25.61932 -25.43554,-38.48632 -1.257,-1.871 -10.04493,-13.59538 -10.04493,-13.60938 0,-0.005 -32.64148,27.53467 -41.39648,32.38867 -27.283,15.128 -50.8603,35.43956 -99.4043,27.97657 -36.334,-5.58601 -44.38408,-14.16993 -67.83008,-33.54493 -14.186,-11.723 -27.95257,-43.92843 -29.39257,-62.64843 -2.545,-33.089 0.71573,-71.85507 43.42773,-108.16407 33.348,-28.349 77.03184,-31.58968 117.71484,-15.80468 43.537,16.892 83.12438,82.5559 102.73438,110.6289 17.722,25.369 31.89559,47.7911 48.05859,71.9961 11.808,17.683 30.4038,39.9642 45.4238,55.2832 22.36,22.816 42.0911,34.44878 65.1211,45.55078 28.37,13.676 47.6598,13.33952 70.5098,15.10352 19.51,1.506 32.4294,-0.83204 49.9394,-4.33204 26.16,-5.227 47.7893,-18.09776 69.4493,-31.88476 7.37,-4.689 11.4109,-9.10794 17.9609,-14.83594 21.36,-18.685 47.7096,-60.17789 54.5996,-87.71289 3.52,-14.09 5.8513,-28.48947 7.2813,-42.73047 1.27,-12.748 1.43,-25.32123 0,-38.24023 -1.67,-14.983 -5.75,-35.9606 -12.25,-49.5586 -6.11,-12.793 -9.2307,-18.43057 -16.1407,-29.26757 -10.83,-16.962 -26.8811,-32.04039 -42.7011,-43.90039 -26.08,-19.563 -31.719,-24.7123 -61.459,-32.7793 -27.495,-7.4585 -47.9717,-10.48514 -66.043,-10.13477 z" />
        </g>
        <g
   transform="matrix(0.419736,0,0,0.800311,5.21901,-101.365)"
   id="g8">
            
        </g>
        <g
   transform="matrix(6.36236e-4,0.389458,-0.862527,0.00121311,730.34,8.86269)"
   id="g12">
            
        </g>
        <g
   transform="matrix(6.36236e-4,0.389458,-0.44306,6.23147e-4,556.473,164.644)"
   id="g16">
            
        </g>
        <g
   transform="matrix(6.36236e-4,0.389458,-0.246734,3.47022e-4,256.091,165.187)"
   id="g20">
            
        </g>
        <g
   transform="matrix(-0.371581,0,0,-0.344486,721.381,349.853)"
   id="g24">
            
        </g>
        <g
   transform="matrix(0.839596,0,0,0.732396,-241.118,-201.732)"
   id="g50">
            <g
   transform="matrix(591.262,0,0,591.262,839.889,1354.72)"
   id="g28">
                <path
   d="m 0.176,-0.456 v 0.282 c 0,0.03 0.007,0.052 0.022,0.068 0.015,0.015 0.034,0.023 0.059,0.023 0.02,0 0.039,-0.006 0.058,-0.019 0.018,-0.012 0.033,-0.029 0.045,-0.052 V -0.456 H 0.48 V 0 H 0.36 V -0.062 C 0.317,-0.015 0.27,0.009 0.219,0.009 0.17,0.009 0.131,-0.007 0.101,-0.039 0.071,-0.071 0.056,-0.113 0.056,-0.164 v -0.292 z"
   style="fill-rule:nonzero"
   id="path26" />
            </g>
            <g
   transform="matrix(591.262,0,0,591.262,1159.19,1354.72)"
   id="g32">
                <path
   d="m 0.295,-0.465 c 0.065,0 0.118,0.022 0.157,0.066 0.04,0.043 0.06,0.1 0.06,0.17 0,0.046 -0.009,0.087 -0.028,0.123 C 0.465,-0.07 0.439,-0.042 0.404,-0.021 0.37,-0.001 0.331,0.009 0.287,0.009 0.252,0.009 0.216,0 0.18,-0.018 V 0.23 H 0.06 v -0.686 h 0.119 v 0.029 C 0.215,-0.452 0.254,-0.465 0.295,-0.465 Z M 0.18,-0.106 c 0.03,0.017 0.058,0.026 0.084,0.026 0.038,0 0.068,-0.014 0.091,-0.041 0.023,-0.027 0.034,-0.061 0.034,-0.104 0,-0.047 -0.01,-0.083 -0.03,-0.109 -0.021,-0.027 -0.05,-0.04 -0.087,-0.04 -0.014,0 -0.028,0.002 -0.041,0.007 -0.013,0.005 -0.03,0.015 -0.051,0.03 z"
   style="fill-rule:nonzero"
   id="path30" />
            </g>
            <g
   transform="matrix(591.262,0,0,591.262,1483.12,1354.72)"
   id="g36">
                <path
   d="m 0.295,-0.465 c 0.065,0 0.118,0.022 0.157,0.066 0.04,0.043 0.06,0.1 0.06,0.17 0,0.046 -0.009,0.087 -0.028,0.123 C 0.465,-0.07 0.439,-0.042 0.404,-0.021 0.37,-0.001 0.331,0.009 0.287,0.009 0.252,0.009 0.216,0 0.18,-0.018 V 0.23 H 0.06 v -0.686 h 0.119 v 0.029 C 0.215,-0.452 0.254,-0.465 0.295,-0.465 Z M 0.18,-0.106 c 0.03,0.017 0.058,0.026 0.084,0.026 0.038,0 0.068,-0.014 0.091,-0.041 0.023,-0.027 0.034,-0.061 0.034,-0.104 0,-0.047 -0.01,-0.083 -0.03,-0.109 -0.021,-0.027 -0.05,-0.04 -0.087,-0.04 -0.014,0 -0.028,0.002 -0.041,0.007 -0.013,0.005 -0.03,0.015 -0.051,0.03 z"
   style="fill-rule:nonzero"
   id="path34" />
            </g>
            <g
   transform="matrix(591.262,0,0,591.262,1807.04,1354.72)"
   id="g40">
                <path
   d="m 0.286,-0.465 c 0.048,0 0.091,0.01 0.13,0.03 0.038,0.02 0.068,0.048 0.089,0.083 0.022,0.036 0.032,0.077 0.032,0.122 0,0.047 -0.01,0.089 -0.03,0.124 -0.021,0.036 -0.051,0.064 -0.09,0.084 -0.04,0.021 -0.083,0.031 -0.131,0.031 -0.048,0 -0.091,-0.01 -0.13,-0.031 C 0.117,-0.042 0.087,-0.07 0.067,-0.106 0.046,-0.141 0.036,-0.183 0.036,-0.23 c 0,-0.046 0.011,-0.087 0.032,-0.122 0.022,-0.036 0.052,-0.064 0.09,-0.083 0.039,-0.02 0.081,-0.03 0.128,-0.03 z M 0.162,-0.23 c 0,0.046 0.011,0.082 0.034,0.109 0.022,0.027 0.052,0.041 0.089,0.041 0.039,0 0.07,-0.013 0.092,-0.039 C 0.4,-0.145 0.411,-0.182 0.411,-0.231 0.411,-0.277 0.4,-0.313 0.377,-0.338 0.355,-0.363 0.324,-0.376 0.285,-0.376 c -0.036,0 -0.066,0.013 -0.089,0.04 -0.022,0.027 -0.034,0.062 -0.034,0.106 z"
   style="fill-rule:nonzero"
   id="path38" />
            </g>
            <g
   transform="matrix(591.262,0,0,591.262,2145.98,1354.72)"
   id="g44">
                <path
   d="m 0.321,-0.465 c 0.016,0 0.031,0.004 0.047,0.011 0.015,0.007 0.033,0.019 0.054,0.036 L 0.379,-0.313 C 0.344,-0.339 0.316,-0.352 0.295,-0.352 0.276,-0.352 0.258,-0.345 0.24,-0.331 0.222,-0.317 0.207,-0.299 0.197,-0.276 0.186,-0.254 0.18,-0.231 0.18,-0.208 V 0 H 0.06 v -0.456 h 0.12 v 0.116 h 0.002 c 0.022,-0.044 0.044,-0.076 0.066,-0.095 0.022,-0.02 0.046,-0.03 0.073,-0.03 z"
   style="fill-rule:nonzero"
   id="path42" />
            </g>
            <g
   transform="matrix(591.262,0,0,591.262,2393.11,1354.72)"
   id="g48">
                <path
   d="m 0.185,-0.577 h 0.01 v 0.121 h 0.156 v 0.091 H 0.195 v 0.21 c 0,0.021 0.006,0.037 0.018,0.05 0.013,0.013 0.03,0.019 0.051,0.019 0.028,0 0.06,-0.01 0.097,-0.03 V -0.02 C 0.318,-0.001 0.277,0.009 0.239,0.009 0.187,0.009 0.147,-0.005 0.118,-0.033 0.09,-0.061 0.075,-0.099 0.075,-0.147 V -0.365 H 0.004 v -0.02 z"
   style="fill-rule:nonzero"
   id="path46" />
            </g>
        </g>
        <g
   transform="matrix(0.732396,0,0,0.732396,-187.137,-480.246)"
   id="g60">
            <g
   transform="matrix(648.609,0,0,648.609,839.889,1354.72)"
   id="g54">
                
            </g>
            <g
   transform="matrix(648.609,0,0,648.609,1198.71,1354.72)"
   id="g58">
                
            </g>
        </g>
        <g
   transform="matrix(0.740218,0,0,0.740218,1037.51,-488.061)"
   id="g66">
            <g
   transform="matrix(648.609,0,0,648.609,839.889,1354.72)"
   id="g64">
                <path
   id="path62"
   style="fill:#69bac9;fill-rule:nonzero"
   d="M 0.02539063,-0.68164062 V -0.578125 H 0.26757812 V 0 H 0.3984375 V -0.578125 H 0.640625 v -0.10351562 z" />
            </g>
        </g>
        <g
   transform="matrix(0.976451,0,0,0.963714,-97.2352,-323.592)"
   id="g70">
            <g
   id="g2096"><path
     id="rect6"
     style="clip-rule:evenodd;fill-rule:evenodd;stroke-width:0.579585;stroke-linejoin:round;stroke-miterlimit:2"
     d="m 412.38867,192.09766 -371.10742,0.52343 0.07031,44.0293 160.86719,-0.22656 v 301.84375 h 47.45313 V 391.89453 l 143.69335,-0.20117 -0.0723,-44.03125 -143.62109,0.20117 V 236.35742 l 162.7871,-0.22851 z m -247.03711,156.00586 -106.160154,0.14843 0.07227,44.03125 106.160154,-0.14843 z"
     transform="matrix(1.0241169,0,0,1.0376522,99.580214,335.77597)" /><path
     d="m 1325.01,551.207 c 120.03,0 217.48,97.549 217.48,217.702 0,120.153 -97.45,217.702 -217.48,217.702 -120.03,0 -217.48,-97.549 -217.48,-217.702 0,-120.153 97.45,-217.702 217.48,-217.702 z m 0,108.851 c 60.01,0 108.74,48.774 108.74,108.851 0,60.076 -48.73,108.851 -108.74,108.851 -60.02,0 -108.74,-48.775 -108.74,-108.851 0,-60.077 48.72,-108.851 108.74,-108.851 z"
     id="path22"
     style="clip-rule:evenodd;fill-rule:evenodd;stroke-linejoin:round;stroke-miterlimit:2"
     transform="matrix(-0.38054239,0,0,-0.35745667,838.35871,698.80172)" /><path
     id="path52"
     style="clip-rule:evenodd;fill-rule:nonzero;stroke-linejoin:round;stroke-miterlimit:2"
     d="M 0.07421875,-0.68164062 V 0 H 0.53710938 V -0.10351562 H 0.20703125 v -0.578125 z"
     transform="matrix(486.49511,0,0,492.92491,537.89646,866.99738)" /><path
     id="path56"
     style="clip-rule:evenodd;fill-rule:nonzero;stroke-linejoin:round;stroke-miterlimit:2"
     d="M 0.07421875,-0.68164062 V 0 H 0.5234375 V -0.10351562 H 0.20703125 V -0.296875 h 0.296875 v -0.10351562 h -0.296875 V -0.578125 H 0.515625 v -0.10351562 z"
     transform="matrix(486.49511,0,0,492.92491,807.03344,866.99738)" /><path
     id="path68"
     style="stroke-width:0.970062"
     d="m 980.0293,187.53906 c -2.55375,-0.0364 -4.38383,0.0194 -4.17383,0.27735 7.87,9.766 18.69921,23.24321 24.44923,29.82421 16.24,18.57901 16.5194,20.84221 30.6094,36.65821 5.52,6.197 16.0714,21.68211 21.4414,27.78711 5.06,5.746 24.1693,31.00809 28.2793,36.24609 -0.18,-0.207 21.9906,-22.45431 29.8906,-30.94531 8.36,-8.985 6.0394,-6.32103 12.8594,-13.45703 0.05,-0.051 -12.2694,-15.23063 -12.8594,-16.01563 -11.97,-15.963 -44.1796,-55.17865 -56.3496,-70.09765 -0.44,-0.539 -5.1201,0 -45.8301,0 -5.81,0 -14.17078,0.235 -19.80078,0 -2.685,-0.1125 -5.96187,-0.24097 -8.51562,-0.27735 z m 251.0234,0.36719 c 0.01,-0.46312 -2.7001,3.03966 -3.9101,4.5625 -8.65,10.92681 -10.9004,13.95857 -23.4004,30.28711 -18.69,24.4109 -36.5283,44.78061 -53.9883,66.84961 -27.38,34.60561 -56.3114,67.7764 -84.4414,101.7207 -18.19,21.95879 -28.7393,36.66648 -46.5293,58.41797 -10.43,12.76413 -29.48086,36.31295 -37.88086,45.79883 -4.97,5.6171 -16.57031,18.37582 -16.57031,19.66406 h 40.98047 c 42.98,0 38.5008,0.35897 38.8008,0 34.84,-42.4736 93.89,-117.25143 129.25,-162.59375 17.91,-22.96794 30.3603,-36.3858 49.3203,-58.60547 8.14,-9.53239 19.1791,-23.51359 27.3691,-33.64258 5.57,-6.88512 55.7202,-68.17461 59.1602,-72.45898 0.05,-0.0677 -12.8202,0 -14.2402,0 h -17.709 c -8,0 -23.2601,-0.004 -34.4199,0 -1.8802,0.001 -10.6711,-0.001 -11.7911,0 z m -28.9726,182.92187 c -0.3027,-0.37583 -2.2758,2.85977 -5.5371,6.18555 -2.0213,2.05657 -8.2504,9.31676 -11.2871,12.85938 -2.1287,2.48927 -7.1587,7.46764 -11.4063,12.36523 -0.4296,0.50017 -10.6035,11.53827 -10.4668,11.47852 -0.2734,0 15.3302,18.84756 16.4434,20.67187 4.56,7.50444 19.8698,23.38697 25.8261,30.73047 9.6083,11.85947 11.6987,15.35896 23.6211,29.61133 12.2545,14.64363 3.4072,4.30684 11.1993,13.25781 2.4216,2.78321 3.0371,4.05865 3.5449,4.0625 13.5824,0.10312 24.2065,-0.31224 36.5683,0 7.0793,0.17829 31.2666,0.15034 39.8985,0 0.039,-9.6e-4 -3.0373,-3.57589 -4.6875,-5.60547 -4.1695,-5.14816 -7.928,-9.45975 -9.6172,-11.71484 -2.5681,-3.41059 -17.4306,-19.41813 -25.5938,-29.61133 -6.6203,-8.28023 -13.1823,-16.22673 -19.705,-24.44336 -10.6434,-13.41393 -3.4168,-4.05472 -10.0274,-12.48047 -1.7771,-2.2734 -5.7621,-6.88497 -9.3847,-10.92969 -4.4331,-4.95251 -7.3522,-9.06677 -12.1954,-15.02734 -3.1344,-3.85775 -9.2466,-10.97174 -13.6113,-15.95703 -4.7944,-5.48161 -9.8422,-10.84367 -13.582,-15.45313 z"
     transform="matrix(1.0241169,0,0,1.0376522,99.580214,335.77597)" /></g>
        </g>
        <g
   transform="matrix(1,0,0,-1.01118,-142.407,1064.41)"
   id="g74">
            
        </g>
        <g
   transform="translate(-131.895,-355.366)"
   id="g78">
            
        </g>
        <g
   transform="matrix(0.977752,0,0,1.01454,-17.6396,-371.611)"
   id="g82">
            <path
   id="rect80"
   style="fill:#69bac9;stroke-width:0.995976"
   transform="matrix(1.0227542,0,0,0.98566838,18.040976,366.28521)"
   d="m 1343.5254,187.42188 v 49.60156 h 110.1269 v 228.60351 h -109.8476 v 49.60157 h 285.043 V 465.62695 H 1515.0352 V 237.02344 h 113.5312 v -49.60156 z" />
        </g>
        <g
   transform="matrix(0.97429,0,0,1.0113,-232.282,-370.075)"
   id="g86">
            
        </g>
        <g
   transform="matrix(0.97429,0,0,1.0113,-232.002,-91.8691)"
   id="g90">
            
        </g>
    </g>
</svg>
