<?xml version="1.0" encoding="UTF-8" standalone="no"?>
<svg
   width="1925.6825"
   height="528.28906"
   version="1.1"
   xml:space="preserve"
   style="clip-rule:evenodd;fill-rule:evenodd;stroke-linejoin:round;stroke-miterlimit:2"
   id="svg92"
   sodipodi:docname="flexit-white-transparent-top.svg"
   inkscape:version="1.1.1 (3bf5ae0d25, 2021-09-20)"
   xmlns:inkscape="http://www.inkscape.org/namespaces/inkscape"
   xmlns:sodipodi="http://sodipodi.sourceforge.net/DTD/sodipodi-0.dtd"
   xmlns="http://www.w3.org/2000/svg"
   xmlns:svg="http://www.w3.org/2000/svg"><defs
     id="defs96" /><sodipodi:namedview
     id="namedview94"
     pagecolor="#505050"
     bordercolor="#eeeeee"
     borderopacity="1"
     inkscape:pageshadow="0"
     inkscape:pageopacity="0"
     inkscape:pagecheckerboard="0"
     showgrid="false"
     inkscape:zoom="0.5562847"
     inkscape:cx="879.04628"
     inkscape:cy="642.65653"
     inkscape:window-width="1920"
     inkscape:window-height="1009"
     inkscape:window-x="1072"
     inkscape:window-y="282"
     inkscape:window-maximized="1"
     inkscape:current-layer="svg92" /><g
     transform="matrix(0.419736,0,0,0.800311,-36.061269,-111.34432)"
     id="g8"><rect
       x="469.34"
       y="368.97501"
       width="113.056"
       height="430.25601"
       style="fill:#ffffff"
       id="rect6" /></g><g
     transform="matrix(6.36236e-4,0.389458,-0.862527,0.00121311,689.05972,-1.1166331)"
     id="g12"><rect
       x="469.34"
       y="368.97501"
       width="113.056"
       height="430.25601"
       style="fill:#ffffff"
       id="rect10" /></g><g
     transform="matrix(6.36236e-4,0.389458,-0.44306,6.23147e-4,515.19272,154.66468)"
     id="g16"><rect
       x="469.34"
       y="368.97501"
       width="113.056"
       height="430.25601"
       style="fill:#ffffff"
       id="rect14" /></g><g
     transform="matrix(6.36236e-4,0.389458,-0.246734,3.47022e-4,214.81072,155.20768)"
     id="g20"><rect
       x="469.34"
       y="368.97501"
       width="113.056"
       height="430.25601"
       style="fill:#ffffff"
       id="rect18" /></g><g
     transform="matrix(-0.371581,0,0,-0.344486,680.10072,339.87368)"
     id="g24"><path
       d="m 1325.01,551.207 c 120.03,0 217.48,97.549 217.48,217.702 0,120.153 -97.45,217.702 -217.48,217.702 -120.03,0 -217.48,-97.549 -217.48,-217.702 0,-120.153 97.45,-217.702 217.48,-217.702 z m 0,108.851 c 60.01,0 108.74,48.774 108.74,108.851 0,60.076 -48.73,108.851 -108.74,108.851 -60.02,0 -108.74,-48.775 -108.74,-108.851 0,-60.077 48.72,-108.851 108.74,-108.851 z"
       style="fill:#ffffff"
       id="path22" /></g><g
     transform="matrix(0.732396,0,0,0.732396,-228.41728,-490.22532)"
     id="g60"><g
       transform="matrix(648.609,0,0,648.609,839.889,1354.72)"
       id="g54"><path
         d="m 0.207,-0.682 v 0.579 H 0.538 V 0 H 0.075 v -0.682 z"
         style="fill:#ffffff;fill-rule:nonzero"
         id="path52" /></g><g
       transform="matrix(648.609,0,0,648.609,1198.71,1354.72)"
       id="g58"><path
         d="m 0.516,-0.682 v 0.103 H 0.207 V -0.4 h 0.296 v 0.103 H 0.207 v 0.194 H 0.523 V 0 H 0.075 v -0.682 z"
         style="fill:#ffffff;fill-rule:nonzero"
         id="path56" /></g></g><g
     transform="matrix(0.740218,0,0,0.740218,996.22972,-498.04032)"
     id="g66"><g
       transform="matrix(648.609,0,0,648.609,839.889,1354.72)"
       id="g64"><path
         d="m 0.641,-0.682 v 0.103 H 0.399 V 0 H 0.267 V -0.579 H 0.025 v -0.103 z"
         style="fill:#69bac9;fill-rule:nonzero"
         id="path62" /></g></g><g
     transform="matrix(0.976451,0,0,0.963714,-138.51548,-333.57132)"
     id="g70"><path
       d="m 1291.02,765.071 c -0.14,0.062 10.28,-11.393 10.72,-11.912 4.35,-5.082 9.5,-10.247 11.68,-12.83 3.11,-3.676 9.49,-11.21 11.56,-13.344 3.34,-3.451 5.36,-6.808 5.67,-6.418 3.83,4.783 9,10.347 13.91,16.035 4.47,5.173 10.73,12.554 13.94,16.557 4.96,6.185 7.95,10.455 12.49,15.594 3.71,4.197 7.79,8.982 9.61,11.341 6.77,8.743 -0.63,-0.969 10.27,12.95 6.68,8.526 13.4,16.771 20.18,25.363 8.36,10.577 23.58,27.188 26.21,30.727 1.73,2.34 5.58,6.814 9.85,12.156 1.69,2.106 4.84,5.815 4.8,5.816 -8.84,0.156 -33.61,0.185 -40.86,0 -12.66,-0.324 -23.54,0.107 -37.45,0 -0.52,-0.004 -1.15,-1.326 -3.63,-4.214 -7.98,-9.288 1.08,1.437 -11.47,-13.758 -12.21,-14.789 -14.35,-18.421 -24.19,-30.727 -6.1,-7.62 -21.78,-24.099 -26.45,-31.886 -1.14,-1.893 -17.12,-21.45 -16.84,-21.45 z"
       style="fill:#ffffff"
       id="path68" /></g><g
     transform="matrix(1,0,0,-1.01118,-183.68728,1054.4307)"
     id="g74"><path
       d="m 1373.46,866.812 c 0.01,0.458 -2.7,-3.006 -3.91,-4.512 -8.65,-10.806 -10.9,-13.803 -23.4,-29.951 -18.69,-24.141 -36.53,-44.286 -53.99,-66.111 -27.38,-34.223 -56.31,-67.028 -84.44,-100.597 -18.19,-21.716 -28.74,-36.261 -46.53,-57.772 -10.43,-12.623 -29.48,-35.911 -37.88,-45.292 -4.97,-5.555 -16.57,-18.173 -16.57,-19.447 h 40.98 c 42.98,0 38.5,-0.355 38.8,0 34.84,42.004 93.89,115.955 129.25,160.796 17.91,22.714 30.36,35.985 49.32,57.959 8.14,9.427 19.18,23.253 27.37,33.27 5.57,6.809 55.72,67.42 59.16,71.657 0.05,0.067 -12.82,0 -14.24,0 h -17.71 c -8,0 -23.26,0.004 -34.42,0 -1.88,-10e-4 -10.67,10e-4 -11.79,0 z"
       style="fill:#ffffff"
       id="path72" /></g><g
     transform="translate(-173.17528,-365.34532)"
     id="g78"><path
       d="m 1212.53,673.699 c -0.18,-0.207 21.99,-22.456 29.89,-30.947 8.36,-8.985 6.04,-6.321 12.86,-13.457 0.05,-0.051 -12.27,-15.23 -12.86,-16.015 -11.97,-15.963 -44.18,-55.179 -56.35,-70.098 -0.44,-0.539 -5.12,0 -45.83,0 -5.81,0 -14.17,0.235 -19.8,0 -5.37,-0.225 -13.11,-0.516 -12.69,0 7.87,9.766 18.7,23.244 24.45,29.825 16.24,18.579 16.52,20.841 30.61,36.657 5.52,6.197 16.07,21.682 21.44,27.787 5.06,5.746 24.17,31.01 28.28,36.248 z"
       style="fill:#ffffff"
       id="path76" /></g><g
     transform="matrix(0.977752,0,0,1.01454,-58.919879,-381.59032)"
     id="g82"><rect
       x="1504.77"
       y="552.11102"
       width="62.778999"
       height="320.884"
       style="fill:#69bac9"
       id="rect80" /></g><g
     transform="matrix(0.97429,0,0,1.0113,-273.56228,-380.05432)"
     id="g86"><rect
       x="1617.39"
       y="551.26703"
       width="292.564"
       height="49.048"
       style="fill:#69bac9"
       id="rect84" /></g><g
     transform="matrix(0.97429,0,0,1.0113,-273.28228,-101.84842)"
     id="g90"><rect
       x="1617.39"
       y="551.26703"
       width="292.564"
       height="49.048"
       style="fill:#69bac9"
       id="rect88" /></g></svg>
