<?xml version="1.0" encoding="UTF-8" standalone="no"?>
<svg
   width="1933.7178"
   height="349.46161"
   version="1.1"
   xml:space="preserve"
   style="clip-rule:evenodd;fill-rule:evenodd;stroke-linejoin:round;stroke-miterlimit:2"
   id="svg92"
   sodipodi:docname="flexit-white-transparent-bottom.svg"
   inkscape:version="1.1.1 (3bf5ae0d25, 2021-09-20)"
   xmlns:inkscape="http://www.inkscape.org/namespaces/inkscape"
   xmlns:sodipodi="http://sodipodi.sourceforge.net/DTD/sodipodi-0.dtd"
   xmlns="http://www.w3.org/2000/svg"
   xmlns:svg="http://www.w3.org/2000/svg"><defs
     id="defs96" /><sodipodi:namedview
     id="namedview94"
     pagecolor="#505050"
     bordercolor="#eeeeee"
     borderopacity="1"
     inkscape:pageshadow="0"
     inkscape:pageopacity="0"
     inkscape:pagecheckerboard="0"
     showgrid="false"
     inkscape:zoom="0.5562847"
     inkscape:cx="920.39201"
     inkscape:cy="78.197368"
     inkscape:window-width="1920"
     inkscape:window-height="1009"
     inkscape:window-x="1072"
     inkscape:window-y="282"
     inkscape:window-maximized="1"
     inkscape:current-layer="svg92" /><g
     transform="matrix(0.557583,0,0,-0.54494,-329.20989,536.66337)"
     id="g4"><path
       d="m 906.184,760.182 c 0,0.014 8.787,11.738 10.044,13.609 8.639,12.867 16.307,25.656 25.437,38.486 2.671,3.754 8.273,12.013 8.074,12.169 -10.661,8.364 -35.641,33.601 -72.642,51.495 -52.227,25.257 -104.403,37.018 -185.741,0 -55.869,-25.428 -81.176,-70.636 -94.528,-115.759 -4.226,-14.281 -8.061,-60.388 -5.666,-74.762 1.106,-6.637 2.842,-22.299 5.666,-31.987 8.02,-27.515 10.76,-33.046 32.597,-64.516 0.676,-0.974 2.087,-2.589 3.991,-4.615 9.229,-9.826 30.033,-29.333 34.744,-32.474 22.051,-14.701 51.191,-29.34 76.858,-34.24 21.252,-4.057 55.412,-4.766 74.49,0 65.739,16.423 90.583,37.254 130.231,86.249 8.421,10.406 22.536,28.702 30.357,39.875 23.574,33.678 40.774,63.386 65.334,96.123 13.25,17.669 19.16,28.471 35.54,43.175 2.45,2.201 15.11,14.14 31.45,24.554 5.7,3.634 16.54,8.524 22.78,10.037 43.47,10.528 78.53,-2.786 89.6,-10.037 20.2,-13.227 37.11,-30.807 44.77,-47.382 6.82,-14.787 15.18,-32.695 14.81,-49.169 -1.21,-53.473 -16.02,-80.895 -59.58,-104.909 -35.77,-19.722 -81.13,-16.744 -114.62,0 -13.19,6.596 -37.96,24.156 -49.17,33.498 -1.2,1.005 -15.13,14.462 -15.58,13.831 -5.76,-7.971 -15.13,-20.872 -21.54,-30.952 -4.56,-7.168 -15.2,-22.291 -20.03,-29.371 -1.75,-2.571 -3,-3.963 -2.76,-4.193 21.81,-21.395 78,-54.676 109.08,-65.211 35.74,-12.114 62.66,-14.917 117.65,0 29.74,8.067 35.38,13.215 61.46,32.778 15.82,11.86 31.87,26.939 42.7,43.901 6.91,10.837 10.03,16.474 16.14,29.267 6.5,13.598 10.58,34.576 12.25,49.559 1.43,12.919 1.27,25.493 0,38.241 -1.43,14.241 -3.76,28.64 -7.28,42.73 -6.89,27.535 -33.24,69.028 -54.6,87.713 -6.55,5.728 -10.59,10.147 -17.96,14.836 -21.66,13.787 -43.29,26.658 -69.45,31.885 -17.51,3.5 -30.43,5.838 -49.94,4.332 -22.85,-1.764 -42.14,-1.428 -70.51,-15.104 -23.03,-11.102 -42.76,-22.736 -65.12,-45.552 C 1010.5,822.973 991.904,800.693 980.096,783.01 963.933,758.805 949.759,736.382 932.037,711.013 912.427,682.94 872.84,617.277 829.303,600.385 788.62,584.6 744.935,587.84 711.587,616.189 c -42.712,36.309 -45.972,75.075 -43.427,108.164 1.44,18.72 15.207,50.925 29.393,62.648 23.446,19.375 31.496,27.96 67.83,33.546 48.544,7.463 72.121,-12.849 99.404,-27.977 8.755,-4.854 41.397,-32.393 41.397,-32.388 z"
       style="fill:#ffffff"
       id="path2" /></g><g
     transform="matrix(0.839596,0,0,0.732396,-254.73589,-742.32863)"
     id="g50"><g
       transform="matrix(591.262,0,0,591.262,839.889,1354.72)"
       id="g28"><path
         d="m 0.176,-0.456 v 0.282 c 0,0.03 0.007,0.052 0.022,0.068 0.015,0.015 0.034,0.023 0.059,0.023 0.02,0 0.039,-0.006 0.058,-0.019 0.018,-0.012 0.033,-0.029 0.045,-0.052 V -0.456 H 0.48 V 0 H 0.36 V -0.062 C 0.317,-0.015 0.27,0.009 0.219,0.009 0.17,0.009 0.131,-0.007 0.101,-0.039 0.071,-0.071 0.056,-0.113 0.056,-0.164 v -0.292 z"
         style="fill:#ffffff;fill-rule:nonzero"
         id="path26" /></g><g
       transform="matrix(591.262,0,0,591.262,1159.19,1354.72)"
       id="g32"><path
         d="m 0.295,-0.465 c 0.065,0 0.118,0.022 0.157,0.066 0.04,0.043 0.06,0.1 0.06,0.17 0,0.046 -0.009,0.087 -0.028,0.123 C 0.465,-0.07 0.439,-0.042 0.404,-0.021 0.37,-0.001 0.331,0.009 0.287,0.009 0.252,0.009 0.216,0 0.18,-0.018 V 0.23 H 0.06 v -0.686 h 0.119 v 0.029 C 0.215,-0.452 0.254,-0.465 0.295,-0.465 Z M 0.18,-0.106 c 0.03,0.017 0.058,0.026 0.084,0.026 0.038,0 0.068,-0.014 0.091,-0.041 0.023,-0.027 0.034,-0.061 0.034,-0.104 0,-0.047 -0.01,-0.083 -0.03,-0.109 -0.021,-0.027 -0.05,-0.04 -0.087,-0.04 -0.014,0 -0.028,0.002 -0.041,0.007 -0.013,0.005 -0.03,0.015 -0.051,0.03 z"
         style="fill:#ffffff;fill-rule:nonzero"
         id="path30" /></g><g
       transform="matrix(591.262,0,0,591.262,1483.12,1354.72)"
       id="g36"><path
         d="m 0.295,-0.465 c 0.065,0 0.118,0.022 0.157,0.066 0.04,0.043 0.06,0.1 0.06,0.17 0,0.046 -0.009,0.087 -0.028,0.123 C 0.465,-0.07 0.439,-0.042 0.404,-0.021 0.37,-0.001 0.331,0.009 0.287,0.009 0.252,0.009 0.216,0 0.18,-0.018 V 0.23 H 0.06 v -0.686 h 0.119 v 0.029 C 0.215,-0.452 0.254,-0.465 0.295,-0.465 Z M 0.18,-0.106 c 0.03,0.017 0.058,0.026 0.084,0.026 0.038,0 0.068,-0.014 0.091,-0.041 0.023,-0.027 0.034,-0.061 0.034,-0.104 0,-0.047 -0.01,-0.083 -0.03,-0.109 -0.021,-0.027 -0.05,-0.04 -0.087,-0.04 -0.014,0 -0.028,0.002 -0.041,0.007 -0.013,0.005 -0.03,0.015 -0.051,0.03 z"
         style="fill:#ffffff;fill-rule:nonzero"
         id="path34" /></g><g
       transform="matrix(591.262,0,0,591.262,1807.04,1354.72)"
       id="g40"><path
         d="m 0.286,-0.465 c 0.048,0 0.091,0.01 0.13,0.03 0.038,0.02 0.068,0.048 0.089,0.083 0.022,0.036 0.032,0.077 0.032,0.122 0,0.047 -0.01,0.089 -0.03,0.124 -0.021,0.036 -0.051,0.064 -0.09,0.084 -0.04,0.021 -0.083,0.031 -0.131,0.031 -0.048,0 -0.091,-0.01 -0.13,-0.031 C 0.117,-0.042 0.087,-0.07 0.067,-0.106 0.046,-0.141 0.036,-0.183 0.036,-0.23 c 0,-0.046 0.011,-0.087 0.032,-0.122 0.022,-0.036 0.052,-0.064 0.09,-0.083 0.039,-0.02 0.081,-0.03 0.128,-0.03 z M 0.162,-0.23 c 0,0.046 0.011,0.082 0.034,0.109 0.022,0.027 0.052,0.041 0.089,0.041 0.039,0 0.07,-0.013 0.092,-0.039 C 0.4,-0.145 0.411,-0.182 0.411,-0.231 0.411,-0.277 0.4,-0.313 0.377,-0.338 0.355,-0.363 0.324,-0.376 0.285,-0.376 c -0.036,0 -0.066,0.013 -0.089,0.04 -0.022,0.027 -0.034,0.062 -0.034,0.106 z"
         style="fill:#ffffff;fill-rule:nonzero"
         id="path38" /></g><g
       transform="matrix(591.262,0,0,591.262,2145.98,1354.72)"
       id="g44"><path
         d="m 0.321,-0.465 c 0.016,0 0.031,0.004 0.047,0.011 0.015,0.007 0.033,0.019 0.054,0.036 L 0.379,-0.313 C 0.344,-0.339 0.316,-0.352 0.295,-0.352 0.276,-0.352 0.258,-0.345 0.24,-0.331 0.222,-0.317 0.207,-0.299 0.197,-0.276 0.186,-0.254 0.18,-0.231 0.18,-0.208 V 0 H 0.06 v -0.456 h 0.12 v 0.116 h 0.002 c 0.022,-0.044 0.044,-0.076 0.066,-0.095 0.022,-0.02 0.046,-0.03 0.073,-0.03 z"
         style="fill:#ffffff;fill-rule:nonzero"
         id="path42" /></g><g
       transform="matrix(591.262,0,0,591.262,2393.11,1354.72)"
       id="g48"><path
         d="m 0.185,-0.577 h 0.01 v 0.121 h 0.156 v 0.091 H 0.195 v 0.21 c 0,0.021 0.006,0.037 0.018,0.05 0.013,0.013 0.03,0.019 0.051,0.019 0.028,0 0.06,-0.01 0.097,-0.03 V -0.02 C 0.318,-0.001 0.277,0.009 0.239,0.009 0.187,0.009 0.147,-0.005 0.118,-0.033 0.09,-0.061 0.075,-0.099 0.075,-0.147 V -0.365 H 0.004 v -0.02 z"
         style="fill:#ffffff;fill-rule:nonzero"
         id="path46" /></g></g></svg>
