<?xml version="1.0" encoding="UTF-8" standalone="no"?><!DOCTYPE svg PUBLIC "-//W3C//DTD SVG 1.1//EN" "http://www.w3.org/Graphics/SVG/1.1/DTD/svg11.dtd"><svg width="1981px" height="903px" version="1.1" xmlns="http://www.w3.org/2000/svg" xmlns:xlink="http://www.w3.org/1999/xlink" xml:space="preserve" xmlns:serif="http://www.serif.com/" style="fill-rule:evenodd;clip-rule:evenodd;stroke-linejoin:round;stroke-miterlimit:2;"><g transform="matrix(0.557583,-5.32873e-18,5.49065e-18,-0.54494,-315.592,1077.26)"><path d="M906.184,760.182C906.184,760.196 914.971,771.92 916.228,773.791C924.867,786.658 932.535,799.447 941.665,812.277C944.336,816.031 949.938,824.29 949.739,824.446C939.078,832.81 914.098,858.047 877.097,875.941C824.87,901.198 772.694,912.959 691.356,875.941C635.487,850.513 610.18,805.305 596.828,760.182C592.602,745.901 588.767,699.794 591.162,685.42C592.268,678.783 594.004,663.121 596.828,653.433C604.848,625.918 607.588,620.387 629.425,588.917C630.101,587.943 631.512,586.328 633.416,584.302C642.645,574.476 663.449,554.969 668.16,551.828C690.211,537.127 719.351,522.488 745.018,517.588C766.27,513.531 800.43,512.822 819.508,517.588C885.247,534.011 910.091,554.842 949.739,603.837C958.16,614.243 972.275,632.539 980.096,643.712C1003.67,677.39 1020.87,707.098 1045.43,739.835C1058.68,757.504 1064.59,768.306 1080.97,783.01C1083.42,785.211 1096.08,797.15 1112.42,807.564C1118.12,811.198 1128.96,816.088 1135.2,817.601C1178.67,828.129 1213.73,814.815 1224.8,807.564C1245,794.337 1261.91,776.757 1269.57,760.182C1276.39,745.395 1284.75,727.487 1284.38,711.013C1283.17,657.54 1268.36,630.118 1224.8,606.104C1189.03,586.382 1143.67,589.36 1110.18,606.104C1096.99,612.7 1072.22,630.26 1061.01,639.602C1059.81,640.607 1045.88,654.064 1045.43,653.433C1039.67,645.462 1030.3,632.561 1023.89,622.481C1019.33,615.313 1008.69,600.19 1003.86,593.11C1002.11,590.539 1000.86,589.147 1001.1,588.917C1022.91,567.522 1079.1,534.241 1110.18,523.706C1145.92,511.592 1172.84,508.789 1227.83,523.706C1257.57,531.773 1263.21,536.921 1289.29,556.484C1305.11,568.344 1321.16,583.423 1331.99,600.385C1338.9,611.222 1342.02,616.859 1348.13,629.652C1354.63,643.25 1358.71,664.228 1360.38,679.211C1361.81,692.13 1361.65,704.704 1360.38,717.452C1358.95,731.693 1356.62,746.092 1353.1,760.182C1346.21,787.717 1319.86,829.21 1298.5,847.895C1291.95,853.623 1287.91,858.042 1280.54,862.731C1258.88,876.518 1237.25,889.389 1211.09,894.616C1193.58,898.116 1180.66,900.454 1161.15,898.948C1138.3,897.184 1119.01,897.52 1090.64,883.844C1067.61,872.742 1047.88,861.108 1025.52,838.292C1010.5,822.973 991.904,800.693 980.096,783.01C963.933,758.805 949.759,736.382 932.037,711.013C912.427,682.94 872.84,617.277 829.303,600.385C788.62,584.6 744.935,587.84 711.587,616.189C668.875,652.498 665.615,691.264 668.16,724.353C669.6,743.073 683.367,775.278 697.553,787.001C720.999,806.376 729.049,814.961 765.383,820.547C813.927,828.01 837.504,807.698 864.787,792.57C873.542,787.716 906.184,760.177 906.184,760.182Z"/></g><g transform="matrix(0.419736,0,0,0.800311,5.21901,-101.365)"><rect x="469.34" y="368.975" width="113.056" height="430.256"/></g><g transform="matrix(0.000636236,0.389458,-0.862527,0.00121311,730.34,8.86269)"><rect x="469.34" y="368.975" width="113.056" height="430.256"/></g><g transform="matrix(0.000636236,0.389458,-0.44306,0.000623147,556.473,164.644)"><rect x="469.34" y="368.975" width="113.056" height="430.256"/></g><g transform="matrix(0.000636236,0.389458,-0.246734,0.000347022,256.091,165.187)"><rect x="469.34" y="368.975" width="113.056" height="430.256"/></g><g transform="matrix(-0.371581,2.34523e-20,2.52682e-20,-0.344486,721.381,349.853)"><path d="M1325.01,551.207C1445.04,551.207 1542.49,648.756 1542.49,768.909C1542.49,889.062 1445.04,986.611 1325.01,986.611C1204.98,986.611 1107.53,889.062 1107.53,768.909C1107.53,648.756 1204.98,551.207 1325.01,551.207ZM1325.01,660.058C1385.02,660.058 1433.75,708.832 1433.75,768.909C1433.75,828.985 1385.02,877.76 1325.01,877.76C1264.99,877.76 1216.27,828.985 1216.27,768.909C1216.27,708.832 1264.99,660.058 1325.01,660.058Z"/></g><g transform="matrix(0.839596,0,0,0.732396,-241.118,-201.732)"><g transform="matrix(591.262,0,0,591.262,839.889,1354.72)"><path d="M0.176,-0.456L0.176,-0.174C0.176,-0.144 0.183,-0.122 0.198,-0.106C0.213,-0.091 0.232,-0.083 0.257,-0.083C0.277,-0.083 0.296,-0.089 0.315,-0.102C0.333,-0.114 0.348,-0.131 0.36,-0.154L0.36,-0.456L0.48,-0.456L0.48,-0L0.36,-0L0.36,-0.062C0.317,-0.015 0.27,0.009 0.219,0.009C0.17,0.009 0.131,-0.007 0.101,-0.039C0.071,-0.071 0.056,-0.113 0.056,-0.164L0.056,-0.456L0.176,-0.456Z" style="fill-rule:nonzero;"/></g><g transform="matrix(591.262,0,0,591.262,1159.19,1354.72)"><path d="M0.295,-0.465C0.36,-0.465 0.413,-0.443 0.452,-0.399C0.492,-0.356 0.512,-0.299 0.512,-0.229C0.512,-0.183 0.503,-0.142 0.484,-0.106C0.465,-0.07 0.439,-0.042 0.404,-0.021C0.37,-0.001 0.331,0.009 0.287,0.009C0.252,0.009 0.216,-0 0.18,-0.018L0.18,0.23L0.06,0.23L0.06,-0.456L0.179,-0.456L0.179,-0.427C0.215,-0.452 0.254,-0.465 0.295,-0.465ZM0.18,-0.106C0.21,-0.089 0.238,-0.08 0.264,-0.08C0.302,-0.08 0.332,-0.094 0.355,-0.121C0.378,-0.148 0.389,-0.182 0.389,-0.225C0.389,-0.272 0.379,-0.308 0.359,-0.334C0.338,-0.361 0.309,-0.374 0.272,-0.374C0.258,-0.374 0.244,-0.372 0.231,-0.367C0.218,-0.362 0.201,-0.352 0.18,-0.337L0.18,-0.106Z" style="fill-rule:nonzero;"/></g><g transform="matrix(591.262,0,0,591.262,1483.12,1354.72)"><path d="M0.295,-0.465C0.36,-0.465 0.413,-0.443 0.452,-0.399C0.492,-0.356 0.512,-0.299 0.512,-0.229C0.512,-0.183 0.503,-0.142 0.484,-0.106C0.465,-0.07 0.439,-0.042 0.404,-0.021C0.37,-0.001 0.331,0.009 0.287,0.009C0.252,0.009 0.216,-0 0.18,-0.018L0.18,0.23L0.06,0.23L0.06,-0.456L0.179,-0.456L0.179,-0.427C0.215,-0.452 0.254,-0.465 0.295,-0.465ZM0.18,-0.106C0.21,-0.089 0.238,-0.08 0.264,-0.08C0.302,-0.08 0.332,-0.094 0.355,-0.121C0.378,-0.148 0.389,-0.182 0.389,-0.225C0.389,-0.272 0.379,-0.308 0.359,-0.334C0.338,-0.361 0.309,-0.374 0.272,-0.374C0.258,-0.374 0.244,-0.372 0.231,-0.367C0.218,-0.362 0.201,-0.352 0.18,-0.337L0.18,-0.106Z" style="fill-rule:nonzero;"/></g><g transform="matrix(591.262,0,0,591.262,1807.04,1354.72)"><path d="M0.286,-0.465C0.334,-0.465 0.377,-0.455 0.416,-0.435C0.454,-0.415 0.484,-0.387 0.505,-0.352C0.527,-0.316 0.537,-0.275 0.537,-0.23C0.537,-0.183 0.527,-0.141 0.507,-0.106C0.486,-0.07 0.456,-0.042 0.417,-0.022C0.377,-0.001 0.334,0.009 0.286,0.009C0.238,0.009 0.195,-0.001 0.156,-0.022C0.117,-0.042 0.087,-0.07 0.067,-0.106C0.046,-0.141 0.036,-0.183 0.036,-0.23C0.036,-0.276 0.047,-0.317 0.068,-0.352C0.09,-0.388 0.12,-0.416 0.158,-0.435C0.197,-0.455 0.239,-0.465 0.286,-0.465ZM0.162,-0.23C0.162,-0.184 0.173,-0.148 0.196,-0.121C0.218,-0.094 0.248,-0.08 0.285,-0.08C0.324,-0.08 0.355,-0.093 0.377,-0.119C0.4,-0.145 0.411,-0.182 0.411,-0.231C0.411,-0.277 0.4,-0.313 0.377,-0.338C0.355,-0.363 0.324,-0.376 0.285,-0.376C0.249,-0.376 0.219,-0.363 0.196,-0.336C0.174,-0.309 0.162,-0.274 0.162,-0.23Z" style="fill-rule:nonzero;"/></g><g transform="matrix(591.262,0,0,591.262,2145.98,1354.72)"><path d="M0.321,-0.465C0.337,-0.465 0.352,-0.461 0.368,-0.454C0.383,-0.447 0.401,-0.435 0.422,-0.418L0.379,-0.313C0.344,-0.339 0.316,-0.352 0.295,-0.352C0.276,-0.352 0.258,-0.345 0.24,-0.331C0.222,-0.317 0.207,-0.299 0.197,-0.276C0.186,-0.254 0.18,-0.231 0.18,-0.208L0.18,-0L0.06,-0L0.06,-0.456L0.18,-0.456L0.18,-0.34L0.182,-0.34C0.204,-0.384 0.226,-0.416 0.248,-0.435C0.27,-0.455 0.294,-0.465 0.321,-0.465Z" style="fill-rule:nonzero;"/></g><g transform="matrix(591.262,0,0,591.262,2393.11,1354.72)"><path d="M0.185,-0.577L0.195,-0.577L0.195,-0.456L0.351,-0.456L0.351,-0.365L0.195,-0.365L0.195,-0.155C0.195,-0.134 0.201,-0.118 0.213,-0.105C0.226,-0.092 0.243,-0.086 0.264,-0.086C0.292,-0.086 0.324,-0.096 0.361,-0.116L0.361,-0.02C0.318,-0.001 0.277,0.009 0.239,0.009C0.187,0.009 0.147,-0.005 0.118,-0.033C0.09,-0.061 0.075,-0.099 0.075,-0.147L0.075,-0.365L0.004,-0.365L0.004,-0.385L0.185,-0.577Z" style="fill-rule:nonzero;"/></g></g><g transform="matrix(0.732396,0,0,0.732396,-187.137,-480.246)"><g transform="matrix(648.609,0,0,648.609,839.889,1354.72)"><path d="M0.207,-0.682L0.207,-0.103L0.538,-0.103L0.538,-0L0.075,-0L0.075,-0.682L0.207,-0.682Z" style="fill-rule:nonzero;"/></g><g transform="matrix(648.609,0,0,648.609,1198.71,1354.72)"><path d="M0.516,-0.682L0.516,-0.579L0.207,-0.579L0.207,-0.4L0.503,-0.4L0.503,-0.297L0.207,-0.297L0.207,-0.103L0.523,-0.103L0.523,-0L0.075,-0L0.075,-0.682L0.516,-0.682Z" style="fill-rule:nonzero;"/></g></g><g transform="matrix(0.740218,0,0,0.740218,1037.51,-488.061)"><g transform="matrix(648.609,0,0,648.609,839.889,1354.72)"><path d="M0.641,-0.682L0.641,-0.579L0.399,-0.579L0.399,-0L0.267,-0L0.267,-0.579L0.025,-0.579L0.025,-0.682L0.641,-0.682Z" style="fill:rgb(105,186,201);fill-rule:nonzero;"/></g></g><g transform="matrix(0.976451,0,0,0.963714,-97.2352,-323.592)"><path d="M1291.02,765.071C1290.88,765.133 1301.3,753.678 1301.74,753.159C1306.09,748.077 1311.24,742.912 1313.42,740.329C1316.53,736.653 1322.91,729.119 1324.98,726.985C1328.32,723.534 1330.34,720.177 1330.65,720.567C1334.48,725.35 1339.65,730.914 1344.56,736.602C1349.03,741.775 1355.29,749.156 1358.5,753.159C1363.46,759.344 1366.45,763.614 1370.99,768.753C1374.7,772.95 1378.78,777.735 1380.6,780.094C1387.37,788.837 1379.97,779.125 1390.87,793.044C1397.55,801.57 1404.27,809.815 1411.05,818.407C1419.41,828.984 1434.63,845.595 1437.26,849.134C1438.99,851.474 1442.84,855.948 1447.11,861.29C1448.8,863.396 1451.95,867.105 1451.91,867.106C1443.07,867.262 1418.3,867.291 1411.05,867.106C1398.39,866.782 1387.51,867.213 1373.6,867.106C1373.08,867.102 1372.45,865.78 1369.97,862.892C1361.99,853.604 1371.05,864.329 1358.5,849.134C1346.29,834.345 1344.15,830.713 1334.31,818.407C1328.21,810.787 1312.53,794.308 1307.86,786.521C1306.72,784.628 1290.74,765.071 1291.02,765.071Z"/></g><g transform="matrix(1,0,0,-1.01118,-142.407,1064.41)"><path d="M1373.46,866.812C1373.47,867.27 1370.76,863.806 1369.55,862.3C1360.9,851.494 1358.65,848.497 1346.15,832.349C1327.46,808.208 1309.62,788.063 1292.16,766.238C1264.78,732.015 1235.85,699.21 1207.72,665.641C1189.53,643.925 1178.98,629.38 1161.19,607.869C1150.76,595.246 1131.71,571.958 1123.31,562.577C1118.34,557.022 1106.74,544.404 1106.74,543.13L1147.72,543.13C1190.7,543.13 1186.22,542.775 1186.52,543.13C1221.36,585.134 1280.41,659.085 1315.77,703.926C1333.68,726.64 1346.13,739.911 1365.09,761.885C1373.23,771.312 1384.27,785.138 1392.46,795.155C1398.03,801.964 1448.18,862.575 1451.62,866.812C1451.67,866.879 1438.8,866.812 1437.38,866.812L1419.67,866.812C1411.67,866.812 1396.41,866.816 1385.25,866.812C1383.37,866.811 1374.58,866.813 1373.46,866.812Z"/></g><g transform="matrix(1,0,0,1,-131.895,-355.366)"><path d="M1212.53,673.699C1212.35,673.492 1234.52,651.243 1242.42,642.752C1250.78,633.767 1248.46,636.431 1255.28,629.295C1255.33,629.244 1243.01,614.065 1242.42,613.28C1230.45,597.317 1198.24,558.101 1186.07,543.182C1185.63,542.643 1180.95,543.182 1140.24,543.182C1134.43,543.182 1126.07,543.417 1120.44,543.182C1115.07,542.957 1107.33,542.666 1107.75,543.182C1115.62,552.948 1126.45,566.426 1132.2,573.007C1148.44,591.586 1148.72,593.848 1162.81,609.664C1168.33,615.861 1178.88,631.346 1184.25,637.451C1189.31,643.197 1208.42,668.461 1212.53,673.699Z"/></g><g transform="matrix(0.977752,0,0,1.01454,-17.6396,-371.611)"><rect x="1504.77" y="552.111" width="62.779" height="320.884" style="fill:rgb(105,186,201);"/></g><g transform="matrix(0.97429,0,0,1.0113,-232.282,-370.075)"><rect x="1617.39" y="551.267" width="292.564" height="49.048" style="fill:rgb(105,186,201);"/></g><g transform="matrix(0.97429,0,0,1.0113,-232.002,-91.8691)"><rect x="1617.39" y="551.267" width="292.564" height="49.048" style="fill:rgb(105,186,201);"/></g></svg>