<?xml version="1.0" encoding="UTF-8" standalone="no"?>
<!DOCTYPE svg PUBLIC "-//W3C//DTD SVG 1.1//EN" "http://www.w3.org/Graphics/SVG/1.1/DTD/svg11.dtd">
<svg width="100%" height="100%" viewBox="0 0 900 900" version="1.1" xmlns="http://www.w3.org/2000/svg" xmlns:xlink="http://www.w3.org/1999/xlink" xml:space="preserve" xmlns:serif="http://www.serif.com/" style="fill-rule:evenodd;clip-rule:evenodd;stroke-linejoin:round;stroke-miterlimit:2;">
    <g transform="matrix(1.16801,0,0,1.2368,-77.7838,-25.0901)">
        <rect x="62.279" y="0.128" width="790.26" height="766.864"/>
    </g>
    <g transform="matrix(0.617569,-5.74925e-18,6.08135e-18,-0.587944,-165.531,1144)">
        <path d="M906.184,760.182C906.184,760.196 914.971,771.92 916.228,773.791C924.867,786.658 932.535,799.447 941.665,812.277C944.336,816.031 949.938,824.29 949.739,824.446C939.078,832.81 914.098,858.047 877.097,875.941C824.87,901.198 772.694,912.959 691.356,875.941C635.487,850.513 610.18,805.305 596.828,760.182C592.602,745.901 588.767,699.794 591.162,685.42C592.268,678.783 594.004,663.121 596.828,653.433C604.848,625.918 607.588,620.387 629.425,588.917C630.101,587.943 631.512,586.328 633.416,584.302C642.645,574.476 663.449,554.969 668.16,551.828C690.211,537.127 719.351,522.488 745.018,517.588C766.27,513.531 800.43,512.822 819.508,517.588C885.247,534.011 910.091,554.842 949.739,603.837C958.16,614.243 972.275,632.539 980.096,643.712C1003.67,677.39 1020.87,707.098 1045.43,739.835C1058.68,757.504 1064.59,768.306 1080.97,783.01C1083.42,785.211 1096.08,797.15 1112.42,807.564C1118.12,811.198 1128.96,816.088 1135.2,817.601C1178.67,828.129 1213.73,814.815 1224.8,807.564C1245,794.337 1261.91,776.757 1269.57,760.182C1276.39,745.395 1284.75,727.487 1284.38,711.013C1283.17,657.54 1268.36,630.118 1224.8,606.104C1189.03,586.382 1143.67,589.36 1110.18,606.104C1096.99,612.7 1072.22,630.26 1061.01,639.602C1059.81,640.607 1045.88,654.064 1045.43,653.433C1039.67,645.462 1030.3,632.561 1023.89,622.481C1019.33,615.313 1008.69,600.19 1003.86,593.11C1002.11,590.539 1000.86,589.147 1001.1,588.917C1022.91,567.522 1079.1,534.241 1110.18,523.706C1145.92,511.592 1172.84,508.789 1227.83,523.706C1257.57,531.773 1263.21,536.921 1289.29,556.484C1305.11,568.344 1321.16,583.423 1331.99,600.385C1338.9,611.222 1342.02,616.859 1348.13,629.652C1354.63,643.25 1358.71,664.228 1360.38,679.211C1361.81,692.13 1361.65,704.704 1360.38,717.452C1358.95,731.693 1356.62,746.092 1353.1,760.182C1346.21,787.717 1319.86,829.21 1298.5,847.895C1291.95,853.623 1287.91,858.042 1280.54,862.731C1258.88,876.518 1237.25,889.389 1211.09,894.616C1193.58,898.116 1180.66,900.454 1161.15,898.948C1138.3,897.184 1119.01,897.52 1090.64,883.844C1067.61,872.742 1047.88,861.108 1025.52,838.292C1010.5,822.973 991.904,800.693 980.096,783.01C963.933,758.805 949.759,736.382 932.037,711.013C912.427,682.94 872.84,617.277 829.303,600.385C788.62,584.6 744.935,587.84 711.587,616.189C668.875,652.498 665.615,691.264 668.16,724.353C669.6,743.073 683.367,775.278 697.553,787.001C720.999,806.376 729.049,814.961 765.383,820.547C813.927,828.01 837.504,807.698 864.787,792.57C873.542,787.716 906.184,760.177 906.184,760.182Z" style="fill:white;"/>
    </g>
    <g transform="matrix(0.000704683,0.420192,-0.95532,0.00130884,996.025,47.1795)">
        <rect x="469.34" y="368.975" width="113.056" height="430.256" style="fill:rgb(105,186,201);"/>
    </g>
    <g transform="matrix(0.000704683,0.420192,-0.490726,0.000672323,803.452,215.254)">
        <rect x="469.34" y="368.975" width="113.056" height="430.256" style="fill:white;"/>
    </g>
    <g transform="matrix(0.000704683,0.420192,-0.273278,0.000374407,470.755,215.84)">
        <rect x="469.34" y="368.975" width="113.056" height="430.256" style="fill:white;"/>
    </g>
    <g transform="matrix(0.464892,0,0,0.863467,192.894,-71.7469)">
        <rect x="469.34" y="368.975" width="113.056" height="430.256" style="fill:rgb(105,186,201);"/>
    </g>
    <g transform="matrix(-0.411557,2.53031e-20,2.79866e-20,-0.371671,986.102,415.079)">
        <path d="M1325.01,551.207C1445.04,551.207 1542.49,648.756 1542.49,768.909C1542.49,889.062 1445.04,986.611 1325.01,986.611C1204.98,986.611 1107.53,889.062 1107.53,768.909C1107.53,648.756 1204.98,551.207 1325.01,551.207ZM1325.01,660.058C1385.02,660.058 1433.75,708.832 1433.75,768.909C1433.75,828.985 1385.02,877.76 1325.01,877.76C1264.99,877.76 1216.27,828.985 1216.27,768.909C1216.27,708.832 1264.99,660.058 1325.01,660.058Z" style="fill:rgb(105,186,201);"/>
    </g>
</svg>
